# ProBuilder 6.0.7
# https://unity3d.com/unity/features/worldbuilding/probuilder
# 2/14/2026 5:58:22 PM

mtllib ./floortype2.mtl
o floortype2

g Cube
v 25.875 -1.1875 -1.625
v 12.5 -1.1875 -1.625
v 25.875 8.8125 -1.625
v 12.5 8.8125 -1.625
v 12.5 -1.1875 -13.625
v 12.5 8.8125 -13.625
v 12.5 -1.1875 -19.875
v 25.875 -1.1875 -19.875
v 12.5 8.8125 -19.875
v 25.875 8.8125 -19.875
v 43.75 -1.1875 -13.625
v 43.75 -1.1875 -1.625
v 43.75 8.8125 -13.625
v 43.75 8.8125 -1.625
v 25.875 8.8125 -13.625
v 25.875 -1.1875 -13.625
v 43.75 8.8125 -19.875
v 43.75 -1.1875 -19.875
v 25.875 -1.1875 4.375
v 25.875 8.8125 4.375
v 39.125 -1.1875 4.375
v 39.125 8.8125 4.375

vt 13.375 -9
vt 0 -9
vt 13.375 1
vt 0 1
vt 12 -9
vt 12 1
vt 0 -11
vt 13.375 -11
vt 17.875 -11
vt 17.875 1
vt 17.875 -9
vt 13.25 -9
vt 13.25 1
vt 6 -9
vt 6 1
vt 17.875 -5
vt 0 -5
vt 4.625 1
vt 7.57566 1
vt 7.57566 -9
vt 6.25 1
vt 6.25 -9
vt 0 -5.25
vt 17.875 -5.25
vt 13.375 -5.25

vn 0 0 1
vn -1 0 0
vn 0 0 -1
vn 1 0 0
vn 0 1 0
vn 0 -1 0
vn 0.7920102 0 0.6105078

usemtl Plastic
f 3/3/1 4/4/1 2/2/1 1/1/1
f 4/6/2 6/4/2 5/2/2 2/5/2
f 9/3/3 10/4/3 8/2/3 7/1/3
f 13/6/4 14/4/4 12/2/4 11/5/4
f 15/7/5 6/8/5 4/3/5 3/4/5
f 1/3/6 2/4/6 5/7/6 16/8/6
f 11/9/6 12/10/6 1/4/6 16/7/6
f 17/4/3 18/2/3 8/11/3 10/10/3
f 21/12/1 22/13/1 20/4/1 19/2/1
f 14/4/5 13/7/5 15/9/5 3/10/5
f 19/14/2 20/15/2 3/4/2 1/2/2
f 21/13/6 19/4/6 1/17/6 12/16/6
f 20/10/5 22/18/5 14/17/5 3/16/5
f 22/4/7 21/2/7 12/20/7 14/19/7
f 10/4/2 8/2/2 16/22/2 15/21/2
f 17/23/5 10/24/5 15/10/5 13/4/5
f 8/23/6 18/24/6 11/10/6 16/4/6
f 18/22/4 17/21/4 13/4/4 11/2/4
f 7/23/6 8/25/6 16/3/6 5/4/6
f 9/4/2 7/2/2 5/22/2 6/21/2
f 8/22/4 10/21/4 15/4/4 16/2/4
f 10/23/5 9/25/5 6/3/5 15/4/5

