# ProBuilder 6.0.7
# https://unity3d.com/unity/features/worldbuilding/probuilder
# 2/14/2026 1:44:29 PM

mtllib ./wallstype2.mtl
o wallstype2

g Cube (2)
v 18.25 0.125 -27.125
v 15.25 0.125 -27.125
v 18.25 10.125 -27.125
v 15.25 10.125 -27.125
v 2.125 -0.875 -42.25
v 2.249998 -0.875 -56.75
v 2.125 9.125 -42.25
v 2.249998 9.125 -56.75
v 15.25 -0.875 -52.75
v 22.25 -0.875 -52.75
v 15.25 9.125 -52.75
v 22.25 9.125 -52.75
v 22.75001 -0.875 -52.25
v 22.75001 -0.875 -42.25
v 22.75001 9.125 -52.25
v 22.75001 9.125 -42.25
v 22.25 9.125 -42.25
v 15.25 9.125 -42.25
v 22.25 9.125 -52.25
v 15.25 9.125 -52.25
v 22.25 -0.875 -52.25
v 15.25 -0.875 -52.25
v 22.25 -0.875 -42.25
v 15.25 -0.875 -42.25
v 11.24999 -0.875 -42.25
v 11.24999 -0.875 -56.25
v 11.24999 10.125 -27.125
v 11.24999 0.125 -27.125
v 11.24999 -0.875 -56.75
v 11.24999 9.125 -56.75
v 11.24999 9.125 -56.25
v 11.24999 9.125 -42.25
v 2.75 -0.875 -42.25
v 2.75 -0.875 -56.25
v 2.75 10.125 -27.125
v 2.75 0.125 -27.125
v 2.75 9.125 -56.25
v 2.75 9.125 -42.25
v 22.25 0.125 -38.74999
v 15.25 0.125 -38.74999
v 2.75 10.125 -38.74999
v 11.24999 10.125 -38.74999
v 11.24999 0.125 -38.74999
v 2.75 0.125 -38.74999
v 2.125 0.125 -39.25
v 2.125 10.125 -39.25
v 15.25 10.125 -38.74999
v 22.25 10.125 -38.74999
v 22.75001 10.125 -38.5625
v 22.75001 0.125 -38.4375
v 18.25 0.125 -35.75
v 15.25 0.125 -35.75
v 2.75 10.125 -35.75
v 11.24999 10.125 -35.75
v 11.24999 0.125 -35.75
v 2.75 0.125 -35.75
v -1.999998 0.125 -39.0625
v -1.75 10.125 -39.25
v -1.75 0.125 -35.75
v -1.75 10.125 -35.75
v 15.25 10.125 -35.75
v 18.25 10.125 -35.75
v 18.75001 10.125 -35.50001
v 18.75001 0.125 -35.50001
v -1.25 0.125 -35.75
v -1.25 0.125 -38.74999
v -1.25 10.125 -38.74999
v -1.25 10.125 -35.75
v -1.25 10.125 -27.125
v -1.25 0.125 -27.125
v 18.25 0.125 -27.625
v 15.25 0.125 -27.625
v 18.75001 10.125 -27.625
v 18.75001 0.125 -27.625
v 11.24999 10.125 -27.625
v 15.25 10.125 -27.625
v 18.25 10.125 -27.625
v 11.24999 0.125 -27.625
v 2.75 10.125 -27.625
v 2.75 0.125 -27.625
v -1.25 10.125 -27.625
v -1.25 0.125 -27.625
v -1.75 0.125 -27.625
v -1.75 10.125 -27.625
v 22.75001 -0.875 -52.75
v 22.75001 9.125 -52.75
v -1.75 10.125 -27.125
v -1.75 0.125 -27.125
v 18.75001 10.125 -27.125
v 18.75001 0.125 -27.125

vt 3 -9
vt 0 -9
vt 3 1
vt 0 1
vt 14.50054 -9
vt 14.50054 1
vt 6.999996 -9
vt 6.999996 1
vt 10 -9
vt 10 1
vt 7 1
vt 7 -9
vt 4.00001 1
vt 4.00001 -9
vt 0 -13
vt 5.65686 -9
vt 5.65686 1
vt 4.00001 -13
vt 8.49999 1
vt 8.49999 -13
vt 8.49999 -9
vt 8.999996 -9
vt 8.999996 1
vt 7 -2.640064
vt 0 -2.640064
vt 8.49999 -2.640064
vt 0 -10
vt 0 0
vt 4.00001 -2.640064
vt 3.812504 0
vt 3.812504 -10
vt 0.1250076 1
vt 7 -1.99999
vt 0 -1.99999
vt 8.49999 -1.99999
vt 0.1681589 -9.003469
vt 3.490074 -9.003469
vt 3.490074 0.9930644
vt 4.00001 -1.99999
vt 5.037745 1
vt 4.961752 -9.000493
vt 0 -8.999508
vt 4.129257 -9
vt 3.871003 1
vt 3 -7.125
vt 0 -7.125
vt 7.875006 1
vt 7.875006 -9
vt 4.00001 -7.125
vt 8.49999 -7.125
vt 8.125 -9
vt 8.125 1
vt 3.814697E-06 0.5
vt 7 0.5
vt 0.5000019 1
vt 8.999996 0.5
vt 0.7071085 1
vt 0.7071085 -9
vt 0.5 -9
vt 0 -3
vt 3.814697E-06 -3.5
vt 4.000013 0.5
vt 4.000013 -3
vt 4.00001 -3.5
vt 6.999996 0.5
vt 0.625 1
vt 0.625 -13
vt 0.1249981 -13.5
vt 0.6092863 1
vt 0.8321147 -2.633238
vt 0 0.4809576
vt 0.2228284 -2.670605
vt 0.5000019 -13.5
vt 0.625 -2.640064
vt 0.625 0.5192289
vt 0.7499981 1
vt 4.749998 1
vt 0 0.6874952
vt 4.124998 0.4999905
vt 0.625 0.4999905
vt 4.5 0.4999905
vt 0.7512999 1
vt 0.7512999 -9
vt 0.04418612 1
vt 0.5 -7.125
vt 0.8125 -9
vt 0.6538515 1
vt 0.7499981 -1.99999
vt 0.2499981 1
vt 0 -2.312495
vt 0.5 -2.5
vt 3 0.5
vt 0.5 0.5
vt 8.49999 0.5
vt 0.5778923 1
vt 0.5778923 -9
vt 0.04389 1
vt 0 -6.875006
vt 0.5000095 -6.875006
vt 4.500008 0.7500057
vt 0.5000076 -2.249985
vt 3.999998 1
vt 0 -2.062498
vt 4 -2.249985
vt 0 0.7500057
vt 4.500008 -1.93749
vt 0.6036882 0.8050947
vt 0.4971647 -2.83341
vt 0.1065264 1
vt 0 -2.818855
vt 0 -2.940535
vt 0 0.6995292
vt 0.5000095 -2.940535
vt 0.5896273 -9
vt 0.5233746 1

vn 0 0 1
vn -0.9999629 0 -0.008620238
vn 0 0 -1
vn 1 0 0
vn 0 1 0
vn 0 -1 0
vn 0.7071059 0 -0.7071076
vn 0 -0.9615241 0.2747204
vn 0 0.9615242 -0.2747204
vn -1 0 0
vn -0.9968184 0.02633089 0.07523111
vn -0.9984092 0.01316544 0.03761555
vn 0.6078805 0.009925188 0.7939665
vn 0.5998945 0.004962594 0.7999859
vn 0.5919085 0 0.8060052
vn -0.04540883 0 -0.9989685
vn -0.02270442 -0.009373591 -0.9993964
vn 0 -0.01874718 -0.9998243
vn -0.7071055 0 0.7071081
vn -0.2146573 -0.9391105 0.2683165
vn -0.1073287 -0.9438969 0.2922722
vn 0 -0.9486833 0.3162278
vn 0.1226301 0.940616 -0.2906449
vn 0.2452601 0.9197079 -0.3065693
vn -0.5457977 0.0134569 0.8149201
vn -0.3844819 0.02691379 0.9227401
vn 0.3846212 0 -0.9230745
vn 0.5456983 -0.01546069 -0.8149182
vn 0.7067754 -0.03092138 -0.706762
vn 0.3510968 0 -0.9363391
vn 0.4405266 -0.005300066 -0.8921489
vn 0.5299564 -0.01060013 -0.8479587
vn 0.102469 0.9564629 -0.2732744
vn 0.05123451 0.9608016 -0.2675038
vn 0 0.9651403 -0.2617333
vn -0.07830417 -0.9584342 0.2626511
vn -0.1566083 -0.9553443 0.2505818
vn -0.5299861 0 0.8480063
vn -0.4405295 0.005852076 0.8921407
vn -0.3510728 0.01170415 0.9362751

usemtl ProBuilderDefault
f 3/3/1 4/4/1 2/2/1 1/1/1
f 7/6/2 8/4/2 6/2/2 5/5/2
f 11/8/3 12/4/3 10/2/3 9/7/3
f 15/10/4 16/4/4 14/2/4 13/9/4
f 19/2/5 20/12/5 18/11/5 17/4/5
f 23/11/6 24/4/6 22/2/6 21/12/6
f 25/4/6 26/15/6 22/14/6 24/13/6
f 27/4/1 28/2/1 2/14/1 4/13/1
f 29/16/7 30/17/7 11/4/7 9/2/7
f 31/18/5 32/13/5 18/4/5 20/2/5
f 33/4/6 34/15/6 26/20/6 25/19/6
f 35/4/1 36/2/1 28/21/1 27/19/1
f 6/22/3 8/23/3 30/4/3 29/2/3
f 37/20/5 38/19/5 32/4/5 31/15/5
f 39/11/8 40/4/8 24/25/8 23/24/8
f 41/19/9 42/4/9 32/25/9 38/26/9
f 43/19/8 44/4/8 33/25/8 25/26/8
f 45/1/10 46/3/10 7/28/10 5/27/10
f 47/11/9 48/4/9 17/25/9 18/24/9
f 42/13/9 47/4/9 18/25/9 32/29/9
f 40/13/8 43/4/8 25/25/8 24/29/8
f 49/32/4 50/2/4 14/31/4 16/30/4
f 51/3/6 52/4/6 40/34/6 39/33/6
f 53/19/5 54/4/5 42/34/5 41/35/5
f 55/19/6 56/4/6 44/34/6 43/35/6
f 59/37/12 60/38/10 58/4/12 57/36/11
f 61/11/5 62/13/5 48/34/5 47/33/5
f 54/13/5 61/4/5 47/34/5 42/39/5
f 52/13/6 55/4/6 43/34/6 40/39/6
f 63/4/14 64/42/15 50/41/14 49/40/13
f 57/43/17 58/44/18 46/4/17 45/2/16
f 65/4/6 66/34/6 44/39/6 56/13/6
f 67/39/5 68/13/5 53/4/5 41/34/5
f 69/4/1 70/2/1 36/14/1 35/13/1
f 71/3/6 72/4/6 52/46/6 51/45/6
f 73/4/4 74/2/4 64/48/4 63/47/4
f 75/13/5 76/4/5 61/46/5 54/49/5
f 76/3/5 77/4/5 62/46/5 61/45/5
f 72/13/6 78/4/6 55/46/6 52/49/6
f 79/19/5 75/4/5 54/46/5 53/50/5
f 78/19/6 80/4/6 56/46/6 55/50/6
f 81/13/5 79/4/5 53/46/5 68/49/5
f 80/13/6 82/4/6 65/46/6 56/49/6
f 83/51/10 84/52/10 60/4/10 59/2/10
f 9/53/6 10/54/6 21/11/6 22/4/6
f 6/53/6 29/56/6 26/23/6 34/55/6
f 30/53/5 8/56/5 37/19/5 31/4/5
f 8/4/19 6/2/19 34/58/19 37/57/19
f 85/59/4 86/55/4 15/4/4 13/2/4
f 29/61/6 9/62/6 22/13/6 26/60/6
f 11/53/5 30/64/5 31/63/5 20/4/5
f 12/53/5 11/65/5 20/11/5 19/4/5
f 5/4/6 6/68/6 34/67/6 33/66/6
f 45/71/21 5/72/22 33/70/21 44/69/20
f 6/58/7 8/57/7 37/4/7 34/2/7
f 8/73/5 7/66/5 38/4/5 37/15/5
f 7/74/23 46/75/24 41/4/23 38/25/9
f 57/78/6 45/79/6 44/77/6 66/76/6
f 46/80/5 58/81/5 67/13/5 41/4/5
f 58/84/25 57/2/26 66/83/25 67/82/19
f 83/4/6 59/46/6 65/85/6 82/55/6
f 60/85/5 84/55/5 81/4/5 68/46/5
f 87/4/1 88/2/1 70/59/1 69/55/1
f 57/86/28 58/87/29 67/4/28 66/2/27
f 59/89/6 57/90/6 66/88/6 65/76/6
f 58/91/5 60/55/5 68/4/5 67/34/5
f 4/3/5 3/4/5 77/53/5 76/92/5
f 69/13/5 35/4/5 79/53/5 81/62/5
f 36/13/6 70/4/6 82/53/6 80/62/6
f 87/55/5 69/4/5 81/53/5 84/93/5
f 1/3/6 2/4/6 72/53/6 71/92/6
f 35/19/5 27/4/5 75/53/5 79/94/5
f 28/19/6 36/4/6 80/53/6 78/94/6
f 27/13/5 4/4/5 76/53/5 75/62/5
f 2/13/6 28/4/6 78/53/6 72/62/6
f 89/4/4 90/2/4 74/59/4 73/55/4
f 70/55/6 88/4/6 83/53/6 82/93/6
f 88/59/10 87/55/10 84/4/10 83/2/10
f 49/97/31 50/2/32 39/96/31 48/95/30
f 89/4/5 73/53/5 77/93/5 3/55/5
f 74/93/6 90/55/6 1/4/6 71/53/6
f 90/59/1 89/55/1 3/4/1 1/2/1
f 73/4/5 63/98/5 62/85/5 77/55/5
f 64/99/6 74/55/6 71/4/6 51/46/6
f 63/102/5 49/103/5 48/101/5 62/100/5
f 50/106/6 64/55/6 51/105/6 39/104/6
f 16/4/5 15/2/5 19/59/5 17/55/5
f 49/109/34 16/110/35 17/108/34 48/107/33
f 14/113/36 50/55/37 39/112/36 23/111/8
f 50/114/39 49/115/40 48/4/39 39/2/38
f 13/59/6 14/55/6 23/4/6 21/2/6
f 85/93/6 13/55/6 21/4/6 10/53/6
f 15/4/5 86/53/5 12/93/5 19/55/5
f 86/4/3 85/2/3 10/59/3 12/55/3

