# ProBuilder 6.0.7
# https://unity3d.com/unity/features/worldbuilding/probuilder
# 2/14/2026 1:43:30 PM

mtllib ./wallstype1.mtl
o wallstype1

g Ibis Walls
v 15.25 22 -14.25
v 11.24999 22 -18.25
v 15.25 22 -14.75
v 11.24999 22 -18.75
v 22.25 22 -14.25
v 22.25 22 -14.75
v 2.75 22 -18.25
v 2.75 22 -4.25
v 2.249998 22 -18.75
v 2.125 22 -4.25
v 2.75 23 -0.7499886
v 2.125 23 -1.25
v -1.25 23 -0.7499847
v -1.75 23 -1.249996
v -1.25 23 2.250004
v -1.25 23 10.375
v -1.75 23 2.250004
v -1.75 23 10.375
v 15.25 23 10.375
v 18.25 23 10.375
v 15.25 23 10.875
v 18.25 23 10.875
v -1.75 23 10.875
v -1.25 23 10.875
v 2.75 23 10.375
v 11.24999 23 10.375
v 2.75 23 10.875
v 11.24999 23 10.875
v 18.75001 23 10.875
v 18.75001 23 10.375
v 18.25 23 2.250004
v 18.75001 23 2.5
v 22.25 23 -0.7499886
v 22.75001 23 -0.5625
v 22.25 22 -4.25
v 22.75001 22 -4.25
v 22.75001 22 -14.25
v 22.75001 22 -14.75
v 15.25 21.49999 -14.25
v 11.24999 21.49999 -18.25
v 15.25 21.49999 -14.75
v 22.25 21.49999 -14.75
v 11.24999 21.49999 -18.75
v 22.25 21.49999 -14.25
v 22.75001 21.49999 -14.75
v 22.75001 21.49999 -14.25
v 22.75001 21.49999 -4.25
v 22.75001 22.49999 -0.5625
v 22.25 22.49999 -0.7499886
v 22.25 21.49999 -4.25
v 18.75001 22.49999 2.5
v 18.25 22.49999 2.250004
v 18.75001 22.49999 10.375
v 18.25 22.49999 10.375
v 18.75001 22.49999 10.875
v 18.25 22.49999 10.875
v 15.25 22.49999 10.875
v 15.25 22.49999 10.375
v 11.24999 22.49999 10.875
v 11.24999 22.49999 10.375
v 2.75 22.49999 10.875
v 2.75 22.49999 10.375
v 2.75 21.49999 -18.25
v 2.75 21.49999 -4.25
v -1.75 22.49999 10.875
v -1.75 22.49999 10.375
v 2.125 21.49999 -4.25
v 2.249998 21.49999 -18.75
v 2.125 22.49999 -1.25
v 2.75 22.49999 -0.7499886
v -1.25 22.49999 -0.7499847
v -1.75 22.49999 -1.249996
v -1.25 22.49999 2.250004
v -1.75 22.49999 2.250004
v -1.25 22.49999 10.375
v -1.25 22.49999 10.875
v 15.25 9.12499 -14.25
v 11.24999 9.12499 -18.25
v 11.24999 14.49999 -18.25
v 15.25 14.49999 -14.25
v 22.25 14.49999 -14.75
v 15.25 14.49999 -14.75
v 11.24999 9.12499 -18.75
v 11.24999 14.49999 -18.75
v 15.25 9.12499 -14.75
v 22.25 9.12499 -14.25
v 22.25 14.49999 -14.25
v 22.25 9.12499 -14.75
v 22.75001 9.12499 -14.75
v 22.75001 14.49999 -14.75
v 22.75001 9.12499 -14.25
v 22.75001 14.49999 -14.25
v 22.75001 9.12499 -4.249996
v 22.75001 10.12499 -0.5625
v 22.75001 15.49999 -0.5625
v 22.75001 14.49999 -4.249996
v 22.25 10.12499 -0.7499847
v 22.25 9.12499 -4.249996
v 22.25 14.49999 -4.249996
v 22.25 15.49999 -0.7499847
v 18.75001 10.12499 2.5
v 18.75001 15.49999 2.5
v 18.25 10.12499 2.250004
v 18.25 15.49999 2.250004
v 18.75001 10.12499 10.375
v 18.75001 15.49999 10.375
v 18.25 10.12499 10.375
v 18.25 15.49999 10.375
v 18.75001 10.12499 10.875
v 18.75001 15.49999 10.875
v 18.25 10.12499 10.875
v 15.25 10.12499 10.875
v 15.25 15.49999 10.875
v 18.25 15.49999 10.875
v 15.25 10.12499 10.375
v 15.25 15.49999 10.375
v 11.24999 10.12499 10.875
v 11.24999 15.49999 10.875
v 11.24999 10.12499 10.375
v 11.24999 15.49999 10.375
v 2.75 10.12499 10.875
v 2.75 15.49999 10.875
v 2.75 10.12499 10.375
v 2.75 15.49999 10.375
v 2.75 9.12499 -18.25
v 2.75 9.12499 -4.249996
v 2.75 14.49999 -4.249996
v 2.75 14.49999 -18.25
v 3.75 9.12499 -18.75
v 3.75 9.12499 -18.25
v 3.75 14.49999 -18.25
v 3.875 14.49999 -18.75
v -1.75 10.12499 10.875
v -1.75 10.12499 10.375
v -1.75 15.49999 10.375
v -1.75 15.49999 10.875
v 2.125 9.12499 -4.249996
v 2.249998 9.12499 -18.75
v 2.249998 14.49999 -18.75
v 2.125 14.49999 -4.249996
v 2.75 10.12499 -0.7499847
v 2.75 15.49999 -0.7499847
v 2.125 10.12499 -1.249996
v 2.125 15.49999 -1.249996
v -1.25 10.12499 -0.7499847
v -1.25 15.49999 -0.7499847
v -1.75 10.12499 -1.249996
v -1.75 15.49999 -1.249996
v -1.25 10.12499 2.250004
v -1.25 15.49999 2.250004
v -1.75 10.12499 2.250004
v -1.75 15.49999 2.250004
v -1.25 10.12499 10.375
v -1.25 15.49999 10.375
v -1.25 10.12499 10.875
v -1.125 15.49999 10.875
v 3.75 21.49999 -18.25
v 3.75 22 -18.25
v 3.75 22 -18.75
v 3.75 21.49999 -18.75
v 15.25186 9.12499 -14.75
v 22.25 22 -5.250004
v 22.75001 22 -5.250004
v 22.75001 20.875 -5.250004
v 22.25 20.875 -5.250004
v 22.75001 9.875 -5.25
v 22.75001 9.12499 -5.25
v 22.25 9.12499 -5.25
v 22.25 9.875 -5.25
v 22.75001 22 -13.25
v 22.25 22 -13.25
v 22.75001 20.875 -13.25
v 22.25 20.875 -13.25
v 22.75001 9.875 -13.25
v 22.75001 9.12499 -13.25
v 22.25 9.12499 -13.25
v 22.25 9.875 -13.25

vt 3.814697E-06 1
vt 4.000013 -3
vt 0 0.5
vt 4.00001 -3.5
vt 7 1
vt 6.999996 0.5
vt 0 -13
vt 0.5000019 -13.5
vt 0.625 1
vt 0 -2.640066
vt 0.625 -2.640066
vt 0.625 0.519227
vt 0 0.9999962
vt 4 1
vt 0.625 0.4999847
vt 4.5 0.4999886
vt 0 -7.125
vt 0.5 -7.125
vt 0.5 1
vt 0 -1.999989
vt 0.5 -2.5
vt 3 0.5
vt 3 1
vt 0.5 0.5
vt 8.49999 0.5
vt 8.49999 1
vt 4.00001 0.5
vt 0 -6.875004
vt 4.500008 0.7500038
vt 0.5000076 -2.249989
vt 3.999998 1
vt 0 -2.0625
vt 0.6036892 0.8050923
vt 0.4971647 -2.833415
vt 0.1065264 1
vt 0 -2.818859
vt 5.656861 0.4999924
vt 0 0.4999924
vt 5.656861 1
vt 6.999996 0.4999924
vt 6.999996 1
vt 7 0.4999924
vt 0.5000095 0.4999924
vt 3.6875 -0.5000076
vt 3.6875 0
vt 3.500011 0.4999924
vt 0 -0.5000076
vt 3.500011 1
vt 0 0
vt 5.037747 0.4999924
vt 5.037747 1
vt 4.999995 0.4999924
vt 4.999995 1
vt 7.875004 0.4999924
vt 7.875004 1
vt 8.125 0.4999924
vt 8.125 1
vt 3 0.4999924
vt 4.00001 0.4999924
vt 8.49999 0.4999924
vt 14 0.4999924
vt 14 1
vt 14.50054 0.4999924
vt 14.50054 1
vt 3.875 0.4999924
vt 3.875 1
vt 2.999989 0.4999924
vt 2.999989 1
vt 5.656861 -11.375
vt 0 -11.375
vt 0 -6
vt 5.656861 -6
vt 6.999996 -6
vt 0.5 -4.375002
vt 0 -4.375002
vt 7 -11.375
vt 7 -6
vt 0.5000095 -11.375
vt 0.5000095 -6
vt 3.687496 -12.375
vt 3.687496 -7
vt 3.500015 -11.375
vt 3.814697E-06 -12.375
vt 3.814697E-06 -7
vt 3.500015 -6
vt 5.037747 -11.375
vt 5.037747 -6
vt 4.999995 -11.375
vt 4.999995 -6
vt 7.875004 -11.375
vt 7.875004 -6
vt 8.125 -11.375
vt 8.125 -6
vt 3 -11.375
vt 3 -6
vt 4.00001 -11.375
vt 4.00001 -6
vt 8.49999 -11.375
vt 8.49999 -6
vt 14 -11.375
vt 14 -6
vt 14 1
vt 0.485075 -4.375002
vt 0.5153885 1
vt 14.50054 -11.375
vt 14.50054 -6
vt 3.500011 -12.375
vt 3.500011 -7
vt 3.500015 0
vt 3.875 -11.375
vt 3.875 -6
vt 2.999989 -11.375
vt 2.999989 -6
vt 0.5153885 -4.373634
vt 0.03031731 -4.37637
vt 0.625 -6
vt 0.125 1
vt 0.125 -6
vt 1 -4.375002
vt 1 1
vt 1 0.4999924
vt 1.625002 1
vt 1.625002 -4.375002
vt 0.125 -4.375002
vt 1 -6
vt 1.500002 1
vt 1.500002 0.4999924
vt 1.625002 -6
vt 1.500002 0.5
vt 11.75 -10.3125
vt 12.25 -10.3125
vt 12.25 -10.8125
vt 11.75 -10.8125
vt 12.78782 2.042616
vt 12.88898 -1.776729
vt 12.39154 -1.789904
vt 12.29037 1.848428
vt 8.250005 6.4375
vt 12.25 3.375
vt 11.75 3.187515
vt 7.749995 6.187504
vt 7.749995 14.3125
vt 7.749995 14.8125
vt 8.250005 14.8125
vt 8.250005 14.3125
vt 4.749995 14.8125
vt 4.749995 14.3125
vt 0.7499857 14.8125
vt 0.7499857 14.3125
vt -7.750005 14.3125
vt -7.750005 14.8125
vt -12.25 14.3125
vt -12.25 14.8125
vt -11.75 14.8125
vt -11.75 14.3125
vt -8.375005 2.687504
vt -12.25 2.687504
vt -11.75 3.187515
vt -7.750005 3.187515
vt -6.61856 -2.616413
vt -6.841389 0.5351503
vt -6.232102 1.054195
vt -6.009274 -2.579045
vt -7.750005 -14.3125
vt -6.750005 -14.3125
vt -6.750005 -14.8125
vt -8.250007 -14.8125
vt -8.375005 -0.3124962
vt -7.750005 -0.3124962
vt -11.75 -6.937506
vt -11.75 -1.562504
vt -4.749999 -1.562504
vt -4.749999 -6.937506
vt -4.751851 -6.937506
vt 4.749995 -10.3125
vt 4.751851 -10.8125
vt 4.749999 -10.8125
vt 0.7499895 -14.8125
vt 0.7499857 -14.3125
vt -12.25 6.187504
vt -11.75 6.187504
vt 0.5000095 -3.814697E-06
vt 1.000004 -0.125
vt -0.3125 5.937504
vt -0.3125 5.437496
vt -1.312504 4.812504
vt -1.312504 5.937504
vt 1.000004 -10.62499
vt 1.000004 -11.375
vt 1.000008 0.3750076
vt 10 1
vt 10 -4.375002
vt 8.999996 -4.375002
vt 8.999996 -3.624992
vt -0.3124962 -1.562504
vt -1.3125 -6.187496
vt 11.75 -0.3124962
vt 12.25 -0.3124962
vt 12.25 -1.3125
vt 11.75 -1.3125
vt 0.5000095 -8.999996
vt 0 -8.999996
vt 0 -8.000004
vt 0.5000095 -8.000004
vt 9.000004 1
vt 9.000004 -0.125
vt 9.999996 1
vt 9.999996 0.4999924
vt -9.312504 4.812504
vt -9.312504 5.937504
vt -10.3125 5.437496
vt -10.3125 5.937504
vt 9.000004 -10.62499
vt 9.000004 -11.375
vt 10 -6
vt 10 -11.375
vt 9.000008 0.3750076
vt 0.9999962 -4.375002
vt 0.9999962 -3.624992
vt -9.3125 -6.187496
vt -10.3125 -1.562504
vt 11.75 -9.3125
vt 12.25 -9.3125
vt 0.5000095 -7
vt 11.75 4.812507
vt 11.75 -6.187493
vt 12.25 4.812507
vt 12.25 -6.187493
vt -11.75 -6.187496
vt -11.75 4.812504
vt -12.25 -6.187496
vt -12.25 4.812504
vt 7.49999 1
vt 7.499994 0.5
vt 0.125 0.4999962
vt 7.374994 -6
vt 7.49999 -6
vt 7.49999 0.4999924
vt 7.499994 0.9999962
vt 19.5 -2.640066
vt 19.5 1
vt 19.5 0.4999924

vn 0 1 0
vn 0 0.9615241 -0.2747203
vn 0.1226305 0.940616 -0.2906448
vn 0.245261 0.9197078 -0.3065692
vn 0.10247 0.9564628 -0.2732742
vn 0.051235 0.9608016 -0.2675036
vn 0 0.9651403 -0.261733
vn -0.7071059 0 0.7071077
vn 0 0 -1
vn 0.7071059 0 -0.7071077
vn 5.449568E-07 -7.629278E-06 1
vn 1 0 0
vn -1 0 0
vn 0.6079107 0 0.7940055
vn -0.599999 0 -0.8000007
vn -0.9999629 0 -0.00862024
vn 0.9997297 -0.02324952 0
vn 0.9849361 -0.01162484 0.1212678
vn 0.9701425 -1.721302E-07 0.2425356
vn 0.9849479 -0.01127785 -0.121237
vn 0.9698957 -0.02255571 -0.2424739
vn 0 -1 0
vn -0.09767122 -0.9605257 0.2604818
vn -0.04883561 -0.9610249 0.267601
vn 0 -0.9615242 0.2747203
vn 0 -0.9486833 0.3162278
vn -0.107329 -0.9438969 0.2922721
vn -0.214658 -0.9391104 0.2683164

usemtl ProBuilderDefault
f 81/171/9 161/174/9 82/172/9
f 81/171/9 88/170/9 161/174/9
f 161/174/9 85/173/9 82/172/9
f 77/175/22 85/177/22 161/176/22
f 78/179/22 85/177/22 77/175/22
f 85/177/22 78/179/22 83/178/22
f 4/4/1 2/2/1 1/1/1
f 1/1/1 3/3/1 4/4/1
f 3/6/1 1/5/1 5/1/1
f 5/1/1 6/3/1 3/6/1
f 10/9/1 8/1/1 7/7/1
f 7/7/1 9/8/1 10/9/1
f 12/12/4 11/1/3 8/10/2
f 8/10/2 10/11/3 12/12/4
f 14/16/1 13/14/1 11/13/1
f 11/13/1 12/15/1 14/16/1
f 18/19/1 16/1/1 15/17/1
f 15/17/1 17/18/1 18/19/1
f 17/19/1 15/1/1 13/20/1
f 13/20/1 14/21/1 17/19/1
f 22/1/1 20/3/1 19/22/1
f 19/22/1 21/23/1 22/1/1
f 24/1/1 16/3/1 18/24/1
f 18/24/1 23/19/1 24/1/1
f 28/1/1 26/3/1 25/25/1
f 25/25/1 27/26/1 28/1/1
f 21/1/1 19/3/1 26/27/1
f 26/27/1 28/14/1 21/1/1
f 30/3/1 20/24/1 22/19/1
f 22/19/1 29/1/1 30/3/1
f 32/28/1 31/18/1 20/19/1
f 20/19/1 30/1/1 32/28/1
f 34/32/1 33/30/1 31/29/1
f 31/29/1 32/31/1 34/32/1
f 36/36/7 35/34/6 33/33/5
f 33/33/5 34/35/6 36/36/7
f 38/3/1 6/24/1 5/19/1
f 5/19/1 37/1/1 38/3/1
f 2/1/8 40/38/8 39/37/8
f 39/37/8 1/39/8 2/1/8
f 6/1/9 42/38/9 41/40/9
f 41/40/9 3/41/9 6/1/9
f 3/1/10 41/38/10 43/37/10
f 43/37/10 4/39/10 3/1/10
f 1/1/11 39/38/11 44/42/11
f 44/42/11 5/5/11 1/1/11
f 38/1/9 45/38/9 42/43/9
f 42/43/9 6/19/9 38/1/9
f 37/1/12 46/38/12 45/43/12
f 45/43/12 38/19/12 37/1/12
f 34/1/12 48/38/12 47/44/12
f 47/44/12 36/45/12 34/1/12
f 35/49/13 50/47/13 49/46/13
f 49/46/13 33/48/13 35/49/13
f 32/1/14 51/38/14 48/50/14
f 48/50/14 34/51/14 32/1/14
f 33/1/15 49/38/15 52/52/15
f 52/52/15 31/53/15 33/1/15
f 30/1/12 53/38/12 51/54/12
f 51/54/12 32/55/12 30/1/12
f 31/1/13 52/38/13 54/56/13
f 54/56/13 20/57/13 31/1/13
f 29/1/12 55/38/12 53/43/12
f 53/43/12 30/19/12 29/1/12
f 21/1/11 57/38/11 56/58/11
f 56/58/11 22/23/11 21/1/11
f 22/1/11 56/38/11 55/43/11
f 55/43/11 29/19/11 22/1/11
f 20/1/9 54/38/9 58/58/9
f 58/58/9 19/23/9 20/1/9
f 28/1/11 59/38/11 57/59/11
f 57/59/11 21/14/11 28/1/11
f 19/1/9 58/38/9 60/59/9
f 60/59/9 26/14/9 19/1/9
f 27/1/11 61/38/11 59/60/11
f 59/60/11 28/26/11 27/1/11
f 26/1/9 60/38/9 62/60/9
f 62/60/9 25/26/9 26/1/9
f 8/1/12 64/38/12 63/61/12
f 63/61/12 7/62/12 8/1/12
f 18/1/13 66/38/13 65/43/13
f 65/43/13 23/19/13 18/1/13
f 9/1/16 68/38/16 67/63/16
f 67/63/16 10/64/16 9/1/16
f 10/49/13 67/47/13 69/58/13
f 69/58/13 12/23/13 10/49/13
f 13/1/11 71/38/11 70/59/11
f 70/59/11 11/14/11 13/1/11
f 12/1/9 69/38/9 72/65/9
f 72/65/9 14/66/9 12/1/9
f 15/1/12 73/38/12 71/67/12
f 71/67/12 13/68/12 15/1/12
f 14/1/13 72/38/13 74/46/13
f 74/46/13 17/48/13 14/1/13
f 16/1/12 75/38/12 73/56/12
f 73/56/12 15/57/12 16/1/12
f 17/1/13 74/38/13 66/56/13
f 66/56/13 18/57/13 17/1/13
f 23/1/11 65/38/11 76/43/11
f 76/43/11 24/19/11 23/1/11
f 79/71/8 78/70/8 77/69/8
f 77/69/8 80/72/8 79/71/8
f 40/1/8 79/71/8 80/72/8
f 80/72/8 39/39/8 40/1/8
f 41/41/9 42/1/9 81/71/9
f 81/71/9 82/73/9 41/41/9
f 84/1/13 83/75/13 78/74/13
f 78/74/13 79/19/13 84/1/13
f 83/69/10 84/72/10 82/71/10
f 82/71/10 85/70/10 83/69/10
f 84/72/10 43/39/10 41/1/10
f 41/1/10 82/71/10 84/72/10
f 80/71/11 77/70/11 86/76/11
f 86/76/11 87/77/11 80/71/11
f 39/1/11 80/71/11 87/77/11
f 87/77/11 44/5/11 39/1/11
f 88/78/9 81/79/9 90/71/9
f 90/71/9 89/70/9 88/78/9
f 81/79/9 42/19/9 45/1/9
f 45/1/9 90/71/9 81/79/9
f 90/79/12 92/71/12 91/70/12
f 91/70/12 89/78/12 90/79/12
f 45/19/12 46/1/12 92/71/12
f 92/71/12 90/79/12 45/19/12
f 96/81/12 95/71/12 94/70/12
f 94/70/12 93/80/12 96/81/12
f 96/81/12 47/45/12 48/1/12
f 48/1/12 95/71/12 96/81/12
f 99/84/13 98/83/13 97/82/13
f 97/82/13 100/85/13 99/84/13
f 50/49/13 99/84/13 100/85/13
f 100/85/13 49/48/13 50/49/13
f 102/71/14 101/70/14 94/86/14
f 94/86/14 95/87/14 102/71/14
f 51/1/14 102/71/14 95/87/14
f 95/87/14 48/51/14 51/1/14
f 104/89/15 100/71/15 97/70/15
f 97/70/15 103/88/15 104/89/15
f 52/53/15 49/1/15 100/71/15
f 100/71/15 104/89/15 52/53/15
f 101/90/12 102/91/12 106/71/12
f 106/71/12 105/70/12 101/90/12
f 102/91/12 51/55/12 53/1/12
f 53/1/12 106/71/12 102/91/12
f 104/71/13 103/70/13 107/92/13
f 107/92/13 108/93/13 104/71/13
f 52/1/13 104/71/13 108/93/13
f 108/93/13 54/57/13 52/1/13
f 106/79/12 110/71/12 109/70/12
f 109/70/12 105/78/12 106/79/12
f 53/19/12 55/1/12 110/71/12
f 110/71/12 106/79/12 53/19/12
f 113/71/11 112/70/11 111/94/11
f 111/94/11 114/95/11 113/71/11
f 57/1/11 113/71/11 114/95/11
f 114/95/11 56/23/11 57/1/11
f 114/71/11 111/70/11 109/78/11
f 109/78/11 110/79/11 114/71/11
f 56/1/11 114/71/11 110/79/11
f 110/79/11 55/19/11 56/1/11
f 116/95/9 108/71/9 107/70/9
f 107/70/9 115/94/9 116/95/9
f 58/23/9 54/1/9 108/71/9
f 108/71/9 116/95/9 58/23/9
f 118/71/11 117/70/11 112/96/11
f 112/96/11 113/97/11 118/71/11
f 59/1/11 118/71/11 113/97/11
f 113/97/11 57/14/11 59/1/11
f 120/97/9 116/71/9 115/70/9
f 115/70/9 119/96/9 120/97/9
f 60/14/9 58/1/9 116/71/9
f 116/71/9 120/97/9 60/14/9
f 122/71/11 121/70/11 117/98/11
f 117/98/11 118/99/11 122/71/11
f 61/1/11 122/71/11 118/99/11
f 118/99/11 59/26/11 61/1/11
f 124/99/9 120/71/9 119/70/9
f 119/70/9 123/98/9 124/99/9
f 62/26/9 60/1/9 120/71/9
f 120/71/9 124/99/9 62/26/9
f 124/1/13 123/75/13 121/74/13
f 121/74/13 122/19/13 124/1/13
f 125/100/12 128/101/12 127/71/12
f 127/71/12 126/70/12 125/100/12
f 128/101/12 63/102/12 64/1/12
f 64/1/12 127/71/12 128/101/12
f 132/104/18 131/1/19 130/75/18
f 130/75/18 129/103/17 132/104/18
f 135/71/13 134/70/13 133/78/13
f 133/78/13 136/79/13 135/71/13
f 66/1/13 135/71/13 136/79/13
f 136/79/13 65/19/13 66/1/13
f 138/70/16 137/105/16 140/106/16
f 140/106/16 139/71/16 138/70/16
f 139/71/16 140/106/16 67/64/16
f 67/64/16 68/1/16 139/71/16
f 127/108/12 142/71/12 141/70/12
f 141/70/12 126/107/12 127/108/12
f 127/108/12 64/109/12 70/1/12
f 70/1/12 142/71/12 127/108/12
f 140/84/13 137/83/13 143/94/13
f 143/94/13 144/95/13 140/84/13
f 67/49/13 140/84/13 144/95/13
f 144/95/13 69/23/13 67/49/13
f 146/71/11 145/70/11 141/96/11
f 141/96/11 142/97/11 146/71/11
f 71/1/11 146/71/11 142/97/11
f 142/97/11 70/14/11 71/1/11
f 148/111/9 144/71/9 143/70/9
f 143/70/9 147/110/9 148/111/9
f 72/66/9 69/1/9 144/71/9
f 144/71/9 148/111/9 72/66/9
f 146/113/12 150/71/12 149/70/12
f 149/70/12 145/112/12 146/113/12
f 71/68/12 73/1/12 150/71/12
f 150/71/12 146/113/12 71/68/12
f 148/71/13 147/70/13 151/82/13
f 151/82/13 152/85/13 148/71/13
f 72/1/13 148/71/13 152/85/13
f 152/85/13 74/48/13 72/1/13
f 150/93/12 154/71/12 153/70/12
f 153/70/12 149/92/12 150/93/12
f 73/57/12 75/1/12 154/71/12
f 154/71/12 150/93/12 73/57/12
f 152/71/13 151/70/13 134/92/13
f 134/92/13 135/93/13 152/71/13
f 74/1/13 152/71/13 135/93/13
f 135/93/13 66/57/13 74/1/13
f 154/104/20 156/1/21 155/115/20
f 155/115/20 153/114/12 154/104/20
f 136/71/11 133/70/11 155/78/11
f 155/78/11 156/116/11 136/71/11
f 65/1/11 136/71/11 156/116/11
f 156/116/11 76/19/11 65/1/11
f 154/3/22 124/27/22 122/14/22
f 122/14/22 156/117/22 154/3/22
f 75/14/9 62/1/9 124/71/9
f 124/71/9 154/97/9 75/14/9
f 156/118/11 122/97/11 61/14/11
f 61/14/11 76/1/11 156/118/11
f 76/38/11 61/59/11 27/14/11
f 27/14/11 24/1/11 76/38/11
f 16/14/9 25/1/9 62/38/9
f 62/38/9 75/59/9 16/14/9
f 24/14/1 27/1/1 25/3/1
f 25/3/1 16/27/1 24/14/1
f 131/120/11 128/1/11 125/75/11
f 125/75/11 130/119/11 131/120/11
f 158/120/11 7/1/11 63/38/11
f 63/38/11 157/121/11 158/120/11
f 129/124/9 138/123/9 139/122/9
f 139/122/9 132/1/9 129/124/9
f 157/120/11 63/1/11 128/71/11
f 128/71/11 131/125/11 157/120/11
f 160/38/9 68/127/9 9/126/9
f 9/126/9 159/1/9 160/38/9
f 132/71/9 139/128/9 68/122/9
f 68/122/9 160/117/9 132/71/9
f 159/38/1 9/129/1 7/120/1
f 7/120/1 158/13/1 159/38/1
f 91/131/22 86/130/22 88/133/22
f 88/133/22 89/132/22 91/131/22
f 93/135/24 94/134/23 97/137/24
f 97/137/24 98/136/25 93/135/24
f 103/141/22 97/140/22 94/139/22
f 94/139/22 101/138/22 103/141/22
f 109/144/22 111/143/22 107/142/22
f 107/142/22 105/145/22 109/144/22
f 101/138/22 105/145/22 107/142/22
f 107/142/22 103/141/22 101/138/22
f 111/143/22 112/146/22 115/147/22
f 115/147/22 107/142/22 111/143/22
f 112/146/22 117/148/22 119/149/22
f 119/149/22 115/147/22 112/146/22
f 117/148/22 121/151/22 123/150/22
f 123/150/22 119/149/22 117/148/22
f 155/154/22 133/153/22 134/152/22
f 134/152/22 153/155/22 155/154/22
f 147/157/22 143/156/22 141/159/22
f 141/159/22 145/158/22 147/157/22
f 126/163/27 141/162/28 143/161/27
f 143/161/27 137/160/26 126/163/27
f 129/166/22 130/165/22 125/164/22
f 125/164/22 138/167/22 129/166/22
f 125/164/22 126/169/22 137/168/22
f 137/168/22 138/167/22 125/164/22
f 86/130/22 77/175/22 161/176/22
f 161/176/22 88/133/22 86/130/22
f 153/155/22 134/152/22 151/180/22
f 151/180/22 149/181/22 153/155/22
f 145/158/22 149/181/22 151/180/22
f 151/180/22 147/157/22 145/158/22
f 36/1/1 163/49/1 162/182/1
f 162/182/1 35/19/1 36/1/1
f 163/120/12 36/1/12 47/38/12
f 47/38/12 164/183/12 163/120/12
f 162/187/13 165/186/13 50/185/13
f 50/185/13 35/184/13 162/187/13
f 166/188/12 96/71/12 93/70/12
f 93/70/12 167/189/12 166/188/12
f 96/71/12 166/188/12 164/190/12
f 164/190/12 47/1/12 96/71/12
f 169/194/13 168/193/13 98/192/13
f 98/192/13 99/191/13 169/194/13
f 165/186/13 169/196/13 99/195/13
f 99/195/13 50/185/13 165/186/13
f 93/198/22 98/197/22 168/200/22
f 168/200/22 167/199/22 93/198/22
f 170/203/1 37/202/1 5/201/1
f 5/201/1 171/204/1 170/203/1
f 163/49/1 170/203/1 171/204/1
f 171/204/1 162/182/1 163/49/1
f 170/205/12 163/120/12 164/183/12
f 164/183/12 172/206/12 170/205/12
f 37/207/12 170/205/12 172/206/12
f 172/206/12 46/208/12 37/207/12
f 171/210/13 173/209/13 165/186/13
f 165/186/13 162/187/13 171/210/13
f 44/211/13 173/209/13 171/210/13
f 171/210/13 5/212/13 44/211/13
f 174/213/12 166/188/12 167/189/12
f 167/189/12 175/214/12 174/213/12
f 92/215/12 174/213/12 175/214/12
f 175/214/12 91/216/12 92/215/12
f 92/215/12 46/191/12 172/217/12
f 172/217/12 174/213/12 92/215/12
f 177/219/13 176/218/13 168/193/13
f 168/193/13 169/194/13 177/219/13
f 87/1/13 86/75/13 176/218/13
f 176/218/13 177/219/13 87/1/13
f 44/211/13 87/221/13 177/220/13
f 177/220/13 173/209/13 44/211/13
f 91/131/22 175/223/22 176/222/22
f 176/222/22 86/130/22 91/131/22
f 175/223/22 167/199/22 168/200/22
f 168/200/22 176/222/22 175/223/22
f 174/84/1 177/224/1 169/19/1
f 169/19/1 166/1/1 174/84/1
f 172/227/11 173/225/11 177/226/11
f 177/226/11 174/228/11 172/227/11
f 173/84/22 172/224/22 164/19/22
f 164/19/22 165/1/22 173/84/22
f 166/231/9 169/229/9 165/230/9
f 165/230/9 164/232/9 166/231/9
f 132/235/22 84/234/22 79/233/22
f 79/233/22 131/13/22 132/235/22
f 160/233/9 43/1/9 84/71/9
f 84/71/9 132/236/9 160/233/9
f 131/71/11 79/237/11 40/233/11
f 40/233/11 157/1/11 131/71/11
f 157/38/11 40/238/11 2/233/11
f 2/233/11 158/1/11 157/38/11
f 159/233/9 4/1/9 43/38/9
f 43/38/9 160/238/9 159/233/9
f 158/239/1 2/1/1 4/3/1
f 4/3/1 159/238/1 158/239/1
f 49/241/25 70/1/25 64/10/25
f 64/10/25 50/240/25 49/241/25
f 50/38/9 64/242/9 8/241/9
f 8/241/9 35/1/9 50/38/9
f 33/241/11 11/1/11 70/38/11
f 70/38/11 49/242/11 33/241/11
f 35/10/2 8/240/2 11/241/2
f 11/241/2 33/1/2 35/10/2

